# xmcd CD database file
#
# Track frame offsets:
#	150
#	16075
#	30802
#	40222
#	59270
#	68207
#	82382
#	107962
#	120520
#	131912
#	146635
#	160727
#
# Disc length: 2731 seconds
#
# Revision: 0
# Processed by: cddbd v1.5.2PL0 Copyright (c) Steve Scherf et al.
# Submitted via: CDex 1.70beta2
#
DISCID=a10aa90c
DTITLE=歌：伊藤京子／ピアノ：三浦良一、他 - 忘れえぬ日本のうたベスト disc2
DYEAR=1900
DGENRE=歌曲
TTITLE0=霧と話した
TTITLE1=「マネチポエティクによる四つの歌曲」より 火の鳥
TTITLE2=「マネチポエティクによる四つの歌曲」より さくら横ちょう
TTITLE3=「マネチポエティクによる四つの歌曲」より 髪
TTITLE4=「マネチポエティクによる四つの歌曲」より 真昼の乙女たち
TTITLE5=あなたとわたし
TTITLE6=荒城の月
TTITLE7=平城山
TTITLE8=花の街
TTITLE9=初恋
TTITLE10=くちなし
TTITLE11=さとうきび畑
EXTD=
EXTT0=
EXTT1=
EXTT2=
EXTT3=
EXTT4=
EXTT5=
EXTT6=
EXTT7=
EXTT8=
EXTT9=
EXTT10=
EXTT11=
PLAYORDER=
